<svg xmlns="http://www.w3.org/2000/svg" width="150" height="50" viewBox="0,0,150,50"><path fill="#444" d="M114.68 28.62L114.69 28.63L114.62 28.56Q111.88 28.64 111.12 30.89L111.03 30.80L111.02 30.79Q110.82 31.54 110.70 32.19L110.84 32.32L110.70 32.18Q113.39 32.48 115.03 32.48L114.95 32.40L114.97 32.42Q116.64 32.46 119.23 32.34L119.24 32.35L119.15 32.26Q119.08 30.59 117.67 29.52L117.65 29.50L117.71 29.56Q116.51 28.66 114.72 28.66ZM114.75 41.19L114.77 41.20L114.80 41.23Q110.48 41.14 109.19 39.74L109.15 39.69L109.31 39.86Q108.22 38.27 108.07 35.00L108.06 34.99L108.21 35.14Q108.15 34.85 108.08 33.48L108.08 33.49L108.09 33.49Q107.90 31.14 107.90 30.42L107.96 30.47L107.88 30.40Q107.98 28.63 108.70 27.52L108.65 27.47L108.58 27.40Q109.98 25.98 112.95 25.98L113.06 26.09L114.63 26.11L114.58 26.06Q116.58 25.99 118.10 26.30L118.08 26.27L118.19 26.39Q120.26 26.86 121.25 28.08L121.11 27.93L121.20 28.03Q121.79 29.07 121.86 31.16L121.98 31.28L121.89 31.19Q121.79 32.23 121.83 34.40L121.87 34.45L121.95 34.53Q118.98 34.45 116.20 34.45L116.25 34.50L110.70 34.54L110.76 34.61Q110.77 38.88 114.84 38.65L114.86 38.66L114.85 38.66Q118.66 38.51 119.88 36.68L119.97 36.77L119.90 36.70Q120.68 37.14 122.28 38.32L122.45 38.49L122.28 38.32Q120.93 40.74 116.78 41.01L116.80 41.02L116.79 41.01Q116.09 41.08 114.72 41.15ZM117.01 43.48L117.16 43.63L117.00 43.48Q118.05 43.38 119.26 43.45L119.38 43.56L119.42 43.60Q124.27 43.66 125.19 40.89L125.17 40.87L125.22 40.92Q123.57 39.65 122.47 38.89L122.61 39.04L122.55 38.97Q122.72 38.57 122.91 38.34L122.97 38.41L122.82 38.25Q122.16 37.86 120.79 36.91L120.75 36.87L120.72 36.84Q121.84 36.93 123.90 37.24L124.01 37.35L123.89 37.23Q123.79 35.94 123.71 35.26L123.79 35.34L123.61 33.37L123.52 33.28Q123.45 31.00 122.80 29.52L122.72 29.43L122.67 29.39Q122.55 29.19 121.98 28.58L121.91 28.51L121.95 28.55Q121.65 28.10 121.43 27.53L121.57 27.68L121.61 27.72Q119.65 25.61 114.59 25.61L114.61 25.62L112.97 25.66L112.88 25.57Q109.59 25.51 108.14 27.00L108.16 27.01L108.13 26.99Q107.42 28.06 107.45 30.12L107.55 30.22L107.56 30.22Q107.66 31.24 107.78 33.49L107.83 33.54L107.80 33.51Q107.79 35.02 107.90 37.08L107.91 37.08L107.85 37.02Q108.18 39.34 109.06 40.41L109.03 40.38L109.12 40.46Q109.30 40.65 109.49 40.76L109.35 40.62L109.71 41.32L109.69 41.30Q110.52 43.20 117.11 43.58ZM114.91 38.30L114.94 38.33L114.93 38.32Q113.70 38.34 112.78 37.88L112.87 37.97L112.93 38.03Q112.86 37.62 112.67 36.94L112.58 36.84L112.62 36.89Q114.30 36.78 115.90 36.78L115.87 36.74L115.94 36.81Q117.52 36.72 119.19 36.83L119.19 36.83L119.24 36.88Q117.86 38.13 114.86 38.24ZM116.47 30.88L116.65 31.05L116.49 30.89Q117.28 31.07 118.61 31.45L118.58 31.43L118.67 31.70L118.73 31.95L118.79 32.01Q117.28 31.99 116.37 31.95L116.41 32.00L116.55 32.13Q114.10 31.93 114.06 31.93L114.13 32.00L114.11 31.98Q114.93 31.13 116.61 31.01Z"/><path fill="#444" d="M53.14 33.29L53.18 33.33L53.21 33.36Q53.07 36.19 51.89 40.84L51.82 40.77L51.88 40.83Q50.05 41.32 48.45 42.12L48.37 42.04L48.34 42.01Q51.14 35.18 50.87 27.75L50.70 27.58L50.82 27.70Q50.41 20.17 47.33 13.43L47.49 13.60L47.35 13.45Q49.32 14.73 51.18 15.31L51.15 15.28L51.30 15.43Q53.30 22.26 53.30 28.92L53.45 29.07L53.29 28.91Q53.38 30.44 53.30 31.93L53.27 31.89L53.34 31.97Q54.46 30.73 59.67 25.78L59.65 25.75L59.72 25.83Q60.81 25.81 61.80 25.74L61.75 25.69L63.88 25.57L63.71 25.40Q60.75 28.60 56.44 32.37L56.33 32.25L56.37 32.29Q59.67 34.99 66.14 40.81L66.19 40.86L66.16 40.83Q63.42 39.92 60.45 39.73L60.57 39.84L60.58 39.85Q57.99 37.69 53.12 33.27ZM63.06 42.49L63.00 42.43L63.00 42.43Q67.77 43.32 70.89 45.26L70.94 45.30L70.81 45.17Q69.75 44.00 67.12 41.60L67.03 41.51L67.16 41.64Q67.25 41.58 67.52 41.69L67.57 41.74L67.55 41.72Q65.56 39.82 63.32 37.91L63.21 37.80L58.78 33.91L58.84 33.97Q63.81 29.76 66.25 26.87L66.28 26.90L66.26 26.89Q65.08 27.00 62.61 27.27L62.43 27.09L62.55 27.21Q64.18 25.80 64.87 24.96L64.75 24.84L64.89 24.98Q62.01 25.38 59.54 25.38L59.54 25.38L59.54 25.38Q58.18 26.73 55.44 29.39L55.39 29.33L55.49 29.43Q55.49 23.65 54.50 17.83L54.49 17.82L54.47 17.80Q53.67 17.53 52.18 17.26L52.17 17.25L52.11 17.19Q52.09 16.60 51.63 15.11L51.59 15.07L51.55 15.03Q48.96 14.26 46.71 12.70L46.71 12.70L46.66 12.65Q50.09 19.47 50.44 27.58L50.49 27.63L50.39 27.54Q50.92 35.64 47.92 42.88L47.74 42.70L47.85 42.81Q48.50 42.47 49.83 41.82L49.76 41.76L49.93 41.92Q49.65 42.71 49.00 44.15L49.04 44.19L48.88 44.03Q51.72 42.95 53.85 42.57L54.01 42.72L53.83 42.54Q54.46 40.09 54.96 35.83L55.05 35.93L55.01 35.88Q57.69 38.22 63.13 42.56Z"/><path d="M12 39 C91 18,75 33,145 15" stroke="#666" fill="none"/><path d="M11 39 C74 49,75 36,133 20" stroke="#888" fill="none"/><path fill="#333" d="M91.69 40.98L91.59 40.89L91.74 41.04Q90.35 39.26 89.05 36.18L89.09 36.22L86.99 31.11L86.90 31.02Q85.28 34.99 84.67 36.29L84.68 36.30L84.80 36.42Q83.37 39.36 81.77 41.27L81.67 41.16L81.74 41.24Q81.21 41.08 80.44 41.20L80.62 41.38L80.49 41.24Q80.61 33.94 74.78 28.00L74.75 27.96L74.63 27.84Q73.06 26.20 71.04 24.72L70.94 24.62L70.90 24.58Q72.85 25.23 74.71 25.53L74.60 25.42L74.59 25.41Q80.82 30.54 82.27 36.78L82.20 36.71L82.21 36.72Q83.12 34.89 84.30 31.70L84.24 31.63L84.18 31.57Q85.70 27.99 86.27 26.70L86.21 26.63L87.49 26.50L87.54 26.56Q88.52 28.37 89.70 31.65L89.59 31.53L89.58 31.53Q91.01 35.28 91.66 36.69L91.52 36.55L91.65 36.69Q93.38 30.30 98.86 25.74L98.99 25.86L98.95 25.82Q100.20 25.77 102.94 25.20L102.78 25.05L102.87 25.14Q94.17 31.10 92.99 41.07L93.08 41.16L92.42 41.03L92.28 40.90Q91.93 40.85 91.59 40.88ZM94.57 43.33L96.81 43.70L96.65 43.55Q96.38 42.06 96.38 40.53L96.45 40.60L96.47 40.63Q96.29 37.21 97.70 33.97L97.86 34.14L97.85 34.13Q99.69 29.46 103.80 26.37L103.89 26.46L103.80 26.37Q102.63 26.68 100.76 27.03L100.72 26.98L100.88 27.14Q102.85 25.49 104.14 24.58L104.16 24.60L101.61 25.02L101.62 25.03Q100.29 25.15 98.96 25.30L99.02 25.36L98.97 25.31Q93.86 29.60 91.92 34.63L91.94 34.65L91.97 34.68Q91.34 32.52 89.97 28.26L89.89 28.18L89.80 28.09Q89.57 28.20 89.30 28.20L89.28 28.19L88.73 28.17L88.82 28.26Q88.70 27.95 87.90 26.20L87.84 26.13L85.89 26.24L85.76 26.11Q84.74 28.86 82.65 34.50L82.77 34.61L82.73 34.58Q81.43 30.92 78.35 27.64L78.39 27.68L78.24 27.53Q78.06 27.63 77.76 27.59L77.66 27.49L77.13 27.41L77.17 27.46Q76.27 26.60 74.48 25.00L74.47 24.98L74.65 25.16Q71.39 24.41 69.71 23.92L69.76 23.96L69.71 23.91Q80.51 31.45 80.13 41.76L80.13 41.76L80.14 41.77Q80.25 41.69 80.61 41.65L80.60 41.64L80.56 41.60Q81.00 41.65 81.19 41.65L81.20 41.65L81.25 41.70Q81.11 41.41 81.30 43.50L81.33 43.53L83.32 43.43L83.37 43.47Q85.97 40.68 88.22 34.93L88.20 34.91L88.15 34.85Q89.62 38.69 91.48 41.35L91.52 41.39L91.51 41.38Q91.75 41.27 92.02 41.29L92.11 41.39L92.04 41.31Q92.29 41.32 92.55 41.32L92.57 41.33L94.68 43.45Z"/><path fill="#111" d="M30.84 30.85L30.81 30.81L30.94 30.95Q30.76 29.66 28.82 28.94L28.93 29.05L28.85 28.97Q28.44 28.86 27.90 28.86L27.72 28.68L27.79 28.74Q26.44 28.77 25.37 29.34L25.34 29.31L25.47 29.43Q24.03 30.09 24.14 31.30L24.21 31.37L24.03 31.20Q24.54 34.17 24.38 36.42L24.28 36.32L24.36 36.39Q24.11 38.73 23.39 41.25L23.37 41.23L23.34 41.20Q21.21 41.69 20.03 42.11L20.12 42.21L20.11 42.20Q21.76 38.63 21.76 34.63L21.65 34.52L21.79 34.67Q21.69 29.12 19.10 24.66L19.05 24.61L19.10 24.67Q20.28 25.12 22.68 25.84L22.81 25.98L22.65 25.82Q22.96 26.55 23.34 28.07L23.34 28.06L23.35 28.08Q24.76 26.06 28.64 26.13L28.57 26.07L28.55 26.05Q30.06 26.11 30.86 26.22L30.85 26.21L30.95 26.31Q33.89 26.66 33.96 28.68L33.97 28.69L33.91 28.63Q34.05 29.64 33.86 30.67L33.88 30.69L33.89 30.70Q33.46 33.24 33.65 36.25L33.62 36.22L33.49 36.09Q33.63 38.93 34.62 41.48L34.77 41.63L34.78 41.64Q32.97 41.12 31.26 40.97L31.19 40.91L31.19 40.91Q30.87 38.68 30.80 36.02L30.79 36.01L30.70 35.92Q30.63 33.19 30.86 30.87ZM30.80 41.24L30.86 41.29L30.88 41.32Q31.68 41.31 32.97 41.54L32.94 41.51L33.39 42.65L33.38 42.63Q33.64 43.20 33.87 43.74L33.78 43.65L33.83 43.70Q36.04 44.04 38.74 45.22L38.85 45.33L38.85 45.33Q36.37 42.09 35.69 38.28L35.79 38.38L35.82 38.41Q35.45 36.25 35.56 32.56L35.43 32.43L35.41 32.41Q35.51 32.21 35.55 31.41L35.64 31.49L35.51 31.37Q35.56 30.73 35.48 30.23L35.55 30.31L35.46 30.21Q35.34 28.53 34.23 28.04L34.39 28.20L34.26 28.06Q34.24 27.36 33.48 26.75L33.45 26.72L33.37 26.64Q31.73 25.68 28.68 25.76L28.67 25.74L28.56 25.64Q26.83 25.81 26.00 26.00L26.01 26.01L25.94 25.95Q24.49 26.29 23.54 27.20L23.47 27.13L23.45 27.11Q23.34 26.58 22.96 25.55L23.09 25.69L23.02 25.62Q20.28 25.00 18.45 24.01L18.35 23.91L18.45 24.02Q21.41 28.80 21.41 34.55L21.49 34.63L21.36 34.51Q21.45 38.97 19.55 42.82L19.64 42.91L19.64 42.90Q20.26 42.53 21.55 42.15L21.59 42.19L21.46 42.06Q21.13 43.48 20.59 44.47L20.55 44.43L20.54 44.42Q21.87 43.88 25.41 43.31L25.38 43.28L25.47 43.37Q26.41 38.18 26.29 33.34L26.32 33.37L26.26 33.31Q26.30 32.55 27.48 31.82L27.49 31.84L27.54 31.88Q28.45 31.12 29.55 31.00L29.59 31.05L29.55 31.01Q30.00 30.96 30.42 31.15L30.40 31.13L30.42 31.15Q30.31 33.75 30.35 36.30L30.34 36.29L30.36 36.31Q30.44 38.86 30.94 41.38Z"/></svg>